<svg width="48" height="48" viewBox="0 0 48 48" fill="none" xmlns="http://www.w3.org/2000/svg">
<rect width="48" height="48" rx="5" fill="black"/>
<path d="M24 31C28.9706 31 33 26.9706 33 22C33 17.0294 28.9706 13 24 13C19.0294 13 15 17.0294 15 22C15 23.4876 15.3609 24.891 16 26.1272L15 31L19.8728 30C21.109 30.6391 22.5124 31 24 31Z" stroke="white" stroke-width="2" stroke-linecap="round" stroke-linejoin="round"/>
<path d="M37 34.5465C34.1445 37.5437 28.0751 40 23.1272 40C18.1792 40 12.1329 37.7465 9 34.5465L9 32C12.9739 34.9978 17.8478 36.6406 22.8728 36.676C27.9677 36.6355 32.9135 34.9958 36.9769 32L37 34.5465Z" fill="#00ADEE"/>
</svg>
