<?xml version="1.0" encoding="UTF-8" standalone="no"?>
<svg
   xmlns:dc="http://purl.org/dc/elements/1.1/"
   xmlns:cc="http://creativecommons.org/ns#"
   xmlns:rdf="http://www.w3.org/1999/02/22-rdf-syntax-ns#"
   xmlns:svg="http://www.w3.org/2000/svg"
   xmlns="http://www.w3.org/2000/svg"
   viewBox="0 0 128 128"
   height="128"
   width="128"
   xml:space="preserve"
   id="svg2"
   version="1.1"><metadata
   id="metadata8"><rdf:RDF><cc:Work
       rdf:about=""><dc:format>image/svg+xml</dc:format><dc:type
         rdf:resource="http://purl.org/dc/dcmitype/StillImage" /><dc:title></dc:title></cc:Work></rdf:RDF></metadata>
    <defs
   id="defs6" />
    <g
   transform="matrix(1.3333333,0,0,-1.3333333,0,128)"
   id="g10"><g
   transform="matrix(0.1,0,0,0.1,17.603678,0)"
   id="g12"><path
   id="path20"
   style="fill:#1c4f9c;fill-opacity:1;fill-rule:nonzero;stroke:none;stroke-width:1"
   d="m 421.03143,456.80597 c 61.3046,19.07819 110.54565,88.39987 110.54565,164.7545 0,113.40646 -85.9343,178.14512 -218.36921,178.14512 -35.80595,0 -50.34296,-3.59893 -50.86382,-3.59893 -15.48975,-30.73346 -24.7527,-58.75792 -32.94253,-90.27916 13.00322,1.42121 28.39088,3.01525 58.40977,3.01525 71.90768,0 113.16042,-32.82999 113.16042,-90.3106 0,-60.27074 -31.16269,-102.46575 -103.49961,-102.46575 h -97.81465 c -6.43093,-31.91913 -6.67435,-64.72816 0,-99.45051 h 105.8422 L 455.22245,179.48572 H 607.92646 L 421.03143,456.80597" /><path
   id="path22"
   style="fill:#1ea6e6;fill-opacity:1;fill-rule:nonzero;stroke:none;stroke-width:1"
   d="M 192.00943,0 C 86.517965,98.305665 0,306.40003 0,474.7613 0,644.18521 78.071637,852.29946 192.00943,960.00003 H 281.718 C 169.87412,812.54652 117.12839,644.18521 117.12839,484.18653 117.12839,325.23218 169.87412,147.43285 281.718,0 h -89.70857" />
    </g>
    </g>
</svg>
