<svg width="24" height="25" viewBox="0 0 24 25" fill="none" xmlns="http://www.w3.org/2000/svg">
<path d="M14.9907 21.6589C12.7658 22.3483 9.15299 21.8802 6.77876 20.5094C4.40453 19.1387 2.14597 16.3505 1.55525 13.9019L2.28146 12.6441C3.33336 15.2257 5.20359 17.3875 7.60466 18.7971C10.0609 20.1885 12.9017 20.7487 15.7059 20.3947L14.9907 21.6589Z" fill="#00ADEE"/>
<path d="M8.0288 2.69264C10.2537 2.00325 13.8665 2.47138 16.2408 3.84214C18.615 5.2129 20.8736 8.00104 21.4643 10.4496L20.7381 11.7075C19.6862 9.12582 17.8159 6.96408 15.4149 5.55448C12.9586 4.16305 10.1178 3.60281 7.31367 3.95689L8.0288 2.69264Z" fill="white"/>
</svg>