<svg viewBox="0 0 25 32" fill="none" xmlns="http://www.w3.org/2000/svg">
<path d="M24.569 26.6975C22.1664 29.0394 17.0597 30.9588 12.8965 30.9588C8.73332 30.9588 3.64605 29.1979 1.01001 26.6975L1.01001 24.7076C4.35359 27.0501 8.45453 28.3338 12.6825 28.3615C16.9693 28.3298 21.1307 27.0485 24.5496 24.7076L24.569 26.6975Z" fill="#00ADEE"/>
<path fill-rule="evenodd" clip-rule="evenodd" d="M12.4999 8.79235C11.8814 9.4819 10.9193 9.7945 10.0136 9.60018C9.91857 10.5216 9.32397 11.34 8.47704 11.7151C8.94172 12.5164 8.94172 13.528 8.47704 14.3293C9.32397 14.7045 9.91857 15.5229 10.0136 16.4443C10.9193 16.2499 11.8814 16.5625 12.4999 17.2521C13.1184 16.5625 14.0805 16.2499 14.9861 16.4443C15.0812 15.5229 15.6758 14.7045 16.5227 14.3293C16.0581 13.528 16.0581 12.5164 16.5227 11.7151C15.6758 11.34 15.0812 10.5216 14.9861 9.60018C14.0805 9.7945 13.1184 9.4819 12.4999 8.79235ZM13.3495 5.94001C13.1749 4.99786 11.8249 4.99786 11.6502 5.94001L11.413 7.21975C11.2881 7.8937 10.4658 8.16088 9.96858 7.68908L9.02444 6.79319C8.32937 6.13363 7.23721 6.92712 7.6497 7.792L8.20999 8.96677C8.50505 9.58544 7.99685 10.2849 7.31728 10.1955L6.02687 10.0256C5.07686 9.9006 4.65969 11.1845 5.50176 11.6417L6.64555 12.2628C7.24791 12.5899 7.24791 13.4545 6.64556 13.7816L5.50176 14.4027C4.65969 14.8599 5.07685 16.1438 6.02686 16.0188L7.31728 15.849C7.99685 15.7595 8.50505 16.459 8.20999 17.0777L7.6497 18.2524C7.23721 19.1173 8.32937 19.9108 9.02444 19.2512L9.96858 18.3554C10.4658 17.8836 11.2881 18.1507 11.413 18.8247L11.6502 20.1044C11.8249 21.0466 13.1749 21.0466 13.3495 20.1044L13.5868 18.8247C13.7117 18.1507 14.534 17.8836 15.0312 18.3554L15.9753 19.2512C16.6704 19.9108 17.7626 19.1173 17.3501 18.2524L16.7898 17.0777C16.4947 16.459 17.0029 15.7595 17.6825 15.849L18.9729 16.0188C19.9229 16.1438 20.3401 14.8599 19.498 14.4027L18.3542 13.7816C17.7519 13.4545 17.7519 12.5899 18.3542 12.2628L19.498 11.6417C20.3401 11.1845 19.9229 9.9006 18.9729 10.0256L17.6825 10.1955C17.0029 10.2849 16.4947 9.58544 16.7898 8.96677L17.3501 7.792C17.7626 6.92712 16.6704 6.13363 15.9753 6.79319L15.0312 7.68908C14.534 8.16088 13.7117 7.8937 13.5868 7.21975L13.3495 5.94001Z" fill="currentColor"/>
<path fill-rule="evenodd" clip-rule="evenodd" d="M11.9861 2.04992C10.9879 4.10513 8.48194 4.91938 6.46636 3.8434C6.04571 3.61885 5.55134 3.97803 5.63491 4.44748C6.03538 6.6969 4.48658 8.82864 2.2235 9.14289C1.75121 9.20847 1.56237 9.78964 1.90592 10.1203C3.55208 11.7047 3.55208 14.3397 1.90592 15.9241C1.56237 16.2548 1.7512 16.836 2.2235 16.9016C4.48658 17.2158 6.03538 19.3476 5.63491 21.597C5.55134 22.0664 6.04571 22.4256 6.46636 22.2011C8.48194 21.1251 10.9879 21.9393 11.9861 23.9945C12.1945 24.4235 12.8055 24.4235 13.0139 23.9945C14.0121 21.9393 16.5181 21.1251 18.5336 22.2011C18.9543 22.4256 19.4487 22.0664 19.3651 21.597C18.9646 19.3476 20.5134 17.2158 22.7765 16.9016C23.2488 16.836 23.4376 16.2548 23.0941 15.9241C21.4479 14.3397 21.4479 11.7047 23.0941 10.1203C23.4376 9.78964 23.2488 9.20847 22.7765 9.14289C20.5134 8.82864 18.9646 6.6969 19.3651 4.44748C19.4487 3.97803 18.9543 3.61885 18.5336 3.8434C16.5181 4.91938 14.0121 4.10513 13.0139 2.04992C12.8055 1.621 12.1945 1.621 11.9861 2.04992ZM14.5684 1.29488C13.7299 -0.431626 11.2701 -0.431626 10.4316 1.29488C9.86168 2.46823 8.43096 2.9331 7.28023 2.31881C5.58703 1.41492 3.59702 2.86074 3.93344 4.7504C4.16207 6.03463 3.27784 7.25168 1.98581 7.43108C0.0846802 7.69506 -0.675433 10.0345 0.707446 11.3655C1.64727 12.2701 1.64727 13.7744 0.707446 14.679C-0.675433 16.01 0.0846805 18.3494 1.98581 18.6134C3.27784 18.7928 4.16207 20.0098 3.93344 21.2941C3.59702 23.1837 5.58703 24.6295 7.28023 23.7256C8.43096 23.1114 9.86168 23.5762 10.4316 24.7496C11.2701 26.4761 13.7299 26.4761 14.5684 24.7496C15.1383 23.5762 16.569 23.1114 17.7198 23.7256C19.413 24.6295 21.403 23.1837 21.0666 21.2941C20.8379 20.0098 21.7222 18.7928 23.0142 18.6134C24.9153 18.3494 25.6754 16.01 24.2926 14.679C23.3527 13.7744 23.3527 12.2701 24.2926 11.3655C25.6754 10.0345 24.9153 7.69506 23.0142 7.43108C21.7222 7.25168 20.8379 6.03463 21.0666 4.7504C21.403 2.86074 19.413 1.41492 17.7198 2.31881C16.569 2.9331 15.1383 2.46823 14.5684 1.29488Z" fill="currentColor"/>
</svg>
