<svg width="265" height="41" viewBox="0 0 265 41" fill="none" xmlns="http://www.w3.org/2000/svg">
<path d="M24.8393 35.8896C21.1527 37.032 15.1663 36.2563 11.2323 33.985C7.29822 31.7136 3.55583 27.0937 2.57701 23.0365L3.78034 20.9523C5.52332 25.23 8.62224 28.812 12.6008 31.1476C16.6707 33.4532 21.3779 34.3815 26.0243 33.7948L24.8393 35.8896Z" fill="#00ADEE"/>
<path d="M13.3013 4.46387C16.9879 3.32155 22.9743 4.09723 26.9083 6.36856C30.8424 8.63988 34.5848 13.2598 35.5636 17.317L34.3603 19.4013C32.6173 15.1235 29.5184 11.5416 25.5399 9.20587C21.4699 6.90029 16.7627 5.972 12.1163 6.5587L13.3013 4.46387Z" fill="white"/>
<path d="M258.715 20.2461C259.824 20.2461 260.803 20.4714 261.653 20.9221C262.519 21.3554 263.195 22.0314 263.681 22.9501C264.183 23.8514 264.435 25.0128 264.435 26.4341V34.4421H260.379V27.0581C260.379 25.9314 260.145 25.0994 259.677 24.5621C259.209 24.0248 258.55 23.7561 257.701 23.7561C257.111 23.7561 256.583 23.8948 256.115 24.1721C255.647 24.4321 255.283 24.8308 255.023 25.3681C254.763 25.9054 254.633 26.5901 254.633 27.4221V34.4421H250.577V27.0581C250.577 25.9314 250.343 25.0994 249.875 24.5621C249.424 24.0248 248.774 23.7561 247.925 23.7561C247.335 23.7561 246.807 23.8948 246.339 24.1721C245.871 24.4321 245.507 24.8308 245.247 25.3681C244.987 25.9054 244.857 26.5901 244.857 27.4221V34.4421H240.801V20.4541H244.675V24.2761L243.947 23.1581C244.432 22.2048 245.117 21.4854 246.001 21.0001C246.902 20.4974 247.925 20.2461 249.069 20.2461C250.351 20.2461 251.469 20.5754 252.423 21.2341C253.393 21.8754 254.035 22.8634 254.347 24.1981L252.917 23.8081C253.385 22.7161 254.13 21.8494 255.153 21.2081C256.193 20.5668 257.38 20.2461 258.715 20.2461Z" fill="white"/>
<path d="M229.68 34.4421V20.4541H233.554V24.4061L233.008 23.2621C233.424 22.2741 234.091 21.5288 235.01 21.0261C235.928 20.5061 237.046 20.2461 238.364 20.2461V23.9901C238.19 23.9728 238.034 23.9641 237.896 23.9641C237.757 23.9468 237.61 23.9381 237.454 23.9381C236.344 23.9381 235.443 24.2588 234.75 24.9001C234.074 25.5241 233.736 26.5034 233.736 27.8381V34.4421H229.68Z" fill="white"/>
<path d="M219.298 34.6501C217.807 34.6501 216.481 34.3381 215.32 33.7141C214.176 33.0901 213.266 32.2408 212.59 31.1661C211.931 30.0741 211.602 28.8348 211.602 27.4481C211.602 26.0441 211.931 24.8048 212.59 23.7301C213.266 22.6381 214.176 21.7888 215.32 21.1821C216.481 20.5581 217.807 20.2461 219.298 20.2461C220.771 20.2461 222.088 20.5581 223.25 21.1821C224.411 21.7888 225.321 22.6294 225.98 23.7041C226.638 24.7788 226.968 26.0268 226.968 27.4481C226.968 28.8348 226.638 30.0741 225.98 31.1661C225.321 32.2408 224.411 33.0901 223.25 33.7141C222.088 34.3381 220.771 34.6501 219.298 34.6501ZM219.298 31.3221C219.974 31.3221 220.58 31.1661 221.118 30.8541C221.655 30.5421 222.08 30.1001 222.392 29.5281C222.704 28.9388 222.86 28.2454 222.86 27.4481C222.86 26.6334 222.704 25.9401 222.392 25.3681C222.08 24.7961 221.655 24.3541 221.118 24.0421C220.58 23.7301 219.974 23.5741 219.298 23.5741C218.622 23.5741 218.015 23.7301 217.478 24.0421C216.94 24.3541 216.507 24.7961 216.178 25.3681C215.866 25.9401 215.71 26.6334 215.71 27.4481C215.71 28.2454 215.866 28.9388 216.178 29.5281C216.507 30.1001 216.94 30.5421 217.478 30.8541C218.015 31.1661 218.622 31.3221 219.298 31.3221Z" fill="white"/>
<path d="M203.26 34.4414V20.1414C203.26 18.5641 203.728 17.3074 204.664 16.3714C205.6 15.4181 206.934 14.9414 208.668 14.9414C209.257 14.9414 209.82 15.0021 210.358 15.1234C210.912 15.2447 211.38 15.4354 211.762 15.6954L210.696 18.6334C210.47 18.4774 210.219 18.3561 209.942 18.2694C209.664 18.1827 209.37 18.1394 209.058 18.1394C208.468 18.1394 208.009 18.3127 207.68 18.6594C207.368 18.9887 207.212 19.4914 207.212 20.1674V21.4674L207.316 23.2094V34.4414H203.26ZM201.102 23.8854V20.7654H210.8V23.8854H201.102Z" fill="white"/>
<path d="M197.185 34.6494C195.538 34.6494 194.255 34.2334 193.337 33.4014C192.418 32.552 191.959 31.2954 191.959 29.6314V17.3594H196.015V29.5794C196.015 30.1687 196.171 30.628 196.483 30.9574C196.795 31.2694 197.219 31.4254 197.757 31.4254C198.398 31.4254 198.944 31.252 199.395 30.9054L200.487 33.7654C200.071 34.06 199.568 34.2854 198.979 34.4414C198.407 34.58 197.809 34.6494 197.185 34.6494ZM189.801 23.8854V20.7654H199.499V23.8854H189.801Z" fill="white"/>
<path d="M183.998 34.4421V31.7121L183.738 31.1141V26.2261C183.738 25.3594 183.469 24.6834 182.932 24.1981C182.412 23.7128 181.606 23.4701 180.514 23.4701C179.768 23.4701 179.032 23.5914 178.304 23.8341C177.593 24.0594 176.986 24.3714 176.484 24.7701L175.028 21.9361C175.79 21.3988 176.709 20.9828 177.784 20.6881C178.858 20.3934 179.95 20.2461 181.06 20.2461C183.192 20.2461 184.847 20.7488 186.026 21.7541C187.204 22.7594 187.794 24.3281 187.794 26.4601V34.4421H183.998ZM179.734 34.6501C178.642 34.6501 177.706 34.4681 176.926 34.1041C176.146 33.7228 175.548 33.2114 175.132 32.5701C174.716 31.9288 174.508 31.2094 174.508 30.4121C174.508 29.5801 174.707 28.8521 175.106 28.2281C175.522 27.6041 176.172 27.1188 177.056 26.7721C177.94 26.4081 179.092 26.2261 180.514 26.2261H184.232V28.5921H180.956C180.002 28.5921 179.344 28.7481 178.98 29.0601C178.633 29.3721 178.46 29.7621 178.46 30.2301C178.46 30.7501 178.659 31.1661 179.058 31.4781C179.474 31.7728 180.037 31.9201 180.748 31.9201C181.424 31.9201 182.03 31.7641 182.568 31.4521C183.105 31.1228 183.495 30.6461 183.738 30.0221L184.362 31.8941C184.067 32.7954 183.53 33.4801 182.75 33.9481C181.97 34.4161 180.964 34.6501 179.734 34.6501Z" fill="white"/>
<path d="M167.598 34.4404V15.1484H171.654V34.4404H167.598Z" fill="white"/>
<path d="M148.84 34.4422V16.2422H156.718C158.347 16.2422 159.751 16.5109 160.93 17.0482C162.109 17.5682 163.019 18.3222 163.66 19.3102C164.301 20.2982 164.622 21.4769 164.622 22.8462C164.622 24.1982 164.301 25.3682 163.66 26.3562C163.019 27.3442 162.109 28.1069 160.93 28.6442C159.751 29.1642 158.347 29.4242 156.718 29.4242H151.18L153.052 27.5262V34.4422H148.84ZM153.052 27.9942L151.18 25.9922H156.484C157.784 25.9922 158.755 25.7149 159.396 25.1602C160.037 24.6055 160.358 23.8342 160.358 22.8462C160.358 21.8409 160.037 21.0609 159.396 20.5062C158.755 19.9515 157.784 19.6742 156.484 19.6742H151.18L153.052 17.6722V27.9942Z" fill="white"/>
<path d="M139.364 34.5721C137.942 34.5721 136.694 34.2774 135.619 33.6881C134.545 33.0814 133.704 32.2581 133.098 31.2181C132.491 30.1608 132.188 28.9561 132.188 27.6041C132.188 26.2521 132.474 25.0561 133.046 24.0161C133.635 22.9761 134.432 22.1614 135.438 21.5721C136.46 20.9654 137.604 20.6621 138.869 20.6621C140.152 20.6621 141.287 20.9568 142.275 21.5461C143.281 22.1181 144.07 22.9328 144.642 23.9901C145.214 25.0301 145.5 26.2348 145.5 27.6041C145.5 27.6908 145.491 27.7861 145.474 27.8901C145.474 27.9768 145.474 28.0721 145.474 28.1761H133.591V26.7981H144.486L143.757 27.3441C143.757 26.3561 143.541 25.4808 143.107 24.7181C142.691 23.9381 142.12 23.3314 141.392 22.8981C140.664 22.4648 139.823 22.2481 138.869 22.2481C137.933 22.2481 137.093 22.4648 136.348 22.8981C135.602 23.3314 135.021 23.9381 134.605 24.7181C134.189 25.4981 133.981 26.3908 133.981 27.3961V27.6821C133.981 28.7221 134.207 29.6408 134.658 30.4381C135.126 31.2181 135.767 31.8334 136.581 32.2841C137.413 32.7174 138.358 32.9341 139.416 32.9341C140.248 32.9341 141.019 32.7868 141.729 32.4921C142.457 32.1974 143.082 31.7468 143.602 31.1401L144.642 32.3361C144.035 33.0641 143.272 33.6188 142.354 34.0001C141.452 34.3814 140.456 34.5721 139.364 34.5721Z" fill="white"/>
<path d="M124.812 34.5721C123.46 34.5721 122.246 34.2774 121.172 33.6881C120.114 33.0814 119.282 32.2581 118.676 31.2181C118.069 30.1608 117.766 28.9561 117.766 27.6041C117.766 26.2348 118.069 25.0301 118.676 23.9901C119.282 22.9501 120.114 22.1354 121.172 21.5461C122.246 20.9568 123.46 20.6621 124.812 20.6621C125.973 20.6621 127.022 20.8874 127.958 21.3381C128.894 21.7888 129.63 22.4648 130.168 23.3661L128.79 24.3021C128.322 23.6088 127.741 23.0974 127.048 22.7681C126.354 22.4388 125.6 22.2741 124.786 22.2741C123.815 22.2741 122.94 22.4994 122.16 22.9501C121.38 23.3834 120.764 23.9988 120.314 24.7961C119.863 25.5934 119.638 26.5294 119.638 27.6041C119.638 28.6788 119.863 29.6148 120.314 30.4121C120.764 31.2094 121.38 31.8334 122.16 32.2841C122.94 32.7174 123.815 32.9341 124.786 32.9341C125.6 32.9341 126.354 32.7694 127.048 32.4401C127.741 32.1108 128.322 31.6081 128.79 30.9321L130.168 31.8681C129.63 32.7521 128.894 33.4281 127.958 33.8961C127.022 34.3468 125.973 34.5721 124.812 34.5721Z" fill="white"/>
<path d="M108.542 20.6621C109.652 20.6621 110.622 20.8788 111.454 21.3121C112.304 21.7281 112.962 22.3694 113.43 23.2361C113.916 24.1028 114.158 25.1948 114.158 26.5121V34.4421H112.312V26.6941C112.312 25.2554 111.948 24.1721 111.22 23.4441C110.51 22.6988 109.504 22.3261 108.204 22.3261C107.234 22.3261 106.384 22.5254 105.656 22.9241C104.946 23.3054 104.391 23.8688 103.992 24.6141C103.611 25.3421 103.42 26.2261 103.42 27.2661V34.4421H101.574V20.7921H103.342V24.5361L103.056 23.8341C103.49 22.8461 104.183 22.0748 105.136 21.5201C106.09 20.9481 107.225 20.6621 108.542 20.6621Z" fill="white"/>
<path d="M91.6799 34.5721C90.2586 34.5721 89.0106 34.2774 87.9359 33.6881C86.8612 33.0814 86.0206 32.2581 85.4139 31.2181C84.8072 30.1608 84.5039 28.9561 84.5039 27.6041C84.5039 26.2521 84.7899 25.0561 85.3619 24.0161C85.9512 22.9761 86.7486 22.1614 87.7539 21.5721C88.7766 20.9654 89.9206 20.6621 91.1859 20.6621C92.4686 20.6621 93.6039 20.9568 94.5919 21.5461C95.5972 22.1181 96.3859 22.9328 96.9579 23.9901C97.5299 25.0301 97.8159 26.2348 97.8159 27.6041C97.8159 27.6908 97.8072 27.7861 97.7899 27.8901C97.7899 27.9768 97.7899 28.0721 97.7899 28.1761H85.9079V26.7981H96.8019L96.0739 27.3441C96.0739 26.3561 95.8572 25.4808 95.4239 24.7181C95.0079 23.9381 94.4359 23.3314 93.7079 22.8981C92.9799 22.4648 92.1392 22.2481 91.1859 22.2481C90.2499 22.2481 89.4092 22.4648 88.6639 22.8981C87.9186 23.3314 87.3379 23.9381 86.9219 24.7181C86.5059 25.4981 86.2979 26.3908 86.2979 27.3961V27.6821C86.2979 28.7221 86.5232 29.6408 86.9739 30.4381C87.4419 31.2181 88.0832 31.8334 88.8979 32.2841C89.7299 32.7174 90.6746 32.9341 91.7319 32.9341C92.5639 32.9341 93.3352 32.7868 94.0459 32.4921C94.7739 32.1974 95.3979 31.7468 95.9179 31.1401L96.9579 32.3361C96.3512 33.0641 95.5886 33.6188 94.6699 34.0001C93.7686 34.3814 92.7719 34.5721 91.6799 34.5721Z" fill="white"/>
<path d="M78.9004 34.4404V20.7904H80.7464V34.4404H78.9004ZM79.8364 17.7744C79.455 17.7744 79.1344 17.6444 78.8744 17.3844C78.6144 17.1244 78.4844 16.8124 78.4844 16.4484C78.4844 16.0844 78.6144 15.7811 78.8744 15.5384C79.1344 15.2784 79.455 15.1484 79.8364 15.1484C80.2177 15.1484 80.5384 15.2698 80.7984 15.5124C81.0584 15.7551 81.1884 16.0584 81.1884 16.4224C81.1884 16.8038 81.0584 17.1244 80.7984 17.3844C80.5557 17.6444 80.235 17.7744 79.8364 17.7744Z" fill="white"/>
<path d="M70.1202 34.5721C68.7682 34.5721 67.5549 34.2774 66.4802 33.6881C65.4229 33.0814 64.5909 32.2581 63.9842 31.2181C63.3776 30.1608 63.0742 28.9561 63.0742 27.6041C63.0742 26.2348 63.3776 25.0301 63.9842 23.9901C64.5909 22.9501 65.4229 22.1354 66.4802 21.5461C67.5549 20.9568 68.7682 20.6621 70.1202 20.6621C71.2816 20.6621 72.3302 20.8874 73.2662 21.3381C74.2022 21.7888 74.9389 22.4648 75.4762 23.3661L74.0982 24.3021C73.6302 23.6088 73.0496 23.0974 72.3562 22.7681C71.6629 22.4388 70.9089 22.2741 70.0942 22.2741C69.1236 22.2741 68.2482 22.4994 67.4682 22.9501C66.6882 23.3834 66.0729 23.9988 65.6222 24.7961C65.1716 25.5934 64.9462 26.5294 64.9462 27.6041C64.9462 28.6788 65.1716 29.6148 65.6222 30.4121C66.0729 31.2094 66.6882 31.8334 67.4682 32.2841C68.2482 32.7174 69.1236 32.9341 70.0942 32.9341C70.9089 32.9341 71.6629 32.7694 72.3562 32.4401C73.0496 32.1108 73.6302 31.6081 74.0982 30.9321L75.4762 31.8681C74.9389 32.7521 74.2022 33.4281 73.2662 33.8961C72.3302 34.3468 71.2816 34.5721 70.1202 34.5721Z" fill="white"/>
<path d="M53.8655 34.5979C52.5135 34.5979 51.2135 34.3813 49.9655 33.9479C48.7348 33.4973 47.7815 32.9253 47.1055 32.2319L47.8595 30.7499C48.5008 31.3739 49.3588 31.9026 50.4335 32.3359C51.5255 32.7519 52.6695 32.9599 53.8655 32.9599C55.0095 32.9599 55.9368 32.8213 56.6475 32.5439C57.3755 32.2493 57.9041 31.8593 58.2335 31.3739C58.5801 30.8886 58.7535 30.3513 58.7535 29.7619C58.7535 29.0513 58.5455 28.4793 58.1295 28.0459C57.7308 27.6126 57.2021 27.2746 56.5435 27.0319C55.8848 26.7719 55.1568 26.5466 54.3595 26.3559C53.5621 26.1653 52.7648 25.9659 51.9675 25.7579C51.1701 25.5326 50.4335 25.2379 49.7575 24.8739C49.0988 24.5099 48.5615 24.0333 48.1455 23.4439C47.7468 22.8373 47.5475 22.0486 47.5475 21.0779C47.5475 20.1766 47.7815 19.3533 48.2495 18.6079C48.7348 17.8453 49.4715 17.2386 50.4595 16.7879C51.4475 16.3199 52.7128 16.0859 54.2555 16.0859C55.2781 16.0859 56.2921 16.2333 57.2975 16.5279C58.3028 16.8053 59.1695 17.1953 59.8975 17.6979L59.2475 19.2319C58.4675 18.7119 57.6355 18.3306 56.7515 18.0879C55.8848 17.8453 55.0441 17.7239 54.2295 17.7239C53.1375 17.7239 52.2361 17.8713 51.5255 18.1659C50.8148 18.4606 50.2861 18.8593 49.9395 19.3619C49.6101 19.8473 49.4455 20.4019 49.4455 21.0259C49.4455 21.7366 49.6448 22.3086 50.0435 22.7419C50.4595 23.1753 50.9968 23.5133 51.6555 23.7559C52.3315 23.9986 53.0681 24.2153 53.8655 24.4059C54.6628 24.5966 55.4515 24.8046 56.2315 25.0299C57.0288 25.2553 57.7568 25.5499 58.4155 25.9139C59.0915 26.2606 59.6288 26.7286 60.0275 27.3179C60.4435 27.9073 60.6515 28.6786 60.6515 29.6319C60.6515 30.5159 60.4088 31.3393 59.9235 32.1019C59.4381 32.8473 58.6928 33.4539 57.6875 33.9219C56.6995 34.3726 55.4255 34.5979 53.8655 34.5979Z" fill="white"/>
</svg>
