<svg width="48" height="48" viewBox="0 0 48 48" fill="none" xmlns="http://www.w3.org/2000/svg">
<rect width="48" height="48" rx="7" fill="#020202"/>
<path d="M26.7279 12.1717C26.0596 10.9784 24.6391 10 23.482 10C22.3236 10 20.9096 10.8972 20.1758 12.1717V13.9295C21.1062 12.7362 22.2463 12.0826 23.4217 12.0682C24.6142 12.0839 25.7713 12.7362 26.7227 13.9295L26.7279 12.1717Z" fill="white"/>
<path fill-rule="evenodd" clip-rule="evenodd" d="M13.6209 12.6393V23.9718C13.6209 29.0238 17.7173 33.1183 22.7703 33.1183H24.4502C24.6756 33.1183 24.8578 32.9349 24.8578 32.7096V24.5337C24.8578 18.1824 19.886 12.9916 13.6209 12.6393ZM12.9381 10C20.9697 10 27.4786 16.5072 27.4786 24.5337V32.7096C27.4786 34.3822 26.1223 35.7379 24.4502 35.7379H22.7703C16.2705 35.7379 11 30.4698 11 23.9718V11.9372C11 10.8671 11.8675 10 12.9381 10Z" fill="white"/>
<path fill-rule="evenodd" clip-rule="evenodd" d="M24.1055 17.9453C26.1235 14.9131 29.494 12.8567 33.3558 12.6393V23.9718C33.3558 29.0238 29.2594 33.1183 24.2064 33.1183H24.1055V34.8865H20.4219C20.967 35.4131 21.7087 35.7379 22.5277 35.7379H24.2064C30.7074 35.7379 35.9767 30.4698 35.9767 23.9718V11.9372C35.9767 10.8671 35.1091 10 34.0385 10C29.5451 10 25.526 12.0381 22.8593 15.2393H24.1055V17.9453Z" fill="white"/>
<path d="M38 35.5465C35.1445 38.5437 29.0751 41 24.1272 41C19.1792 41 13.1329 38.7465 10 35.5465L10 33C13.9739 35.9978 18.8478 37.6406 23.8728 37.676C28.9677 37.6355 33.9135 35.9958 37.9769 33L38 35.5465Z" fill="#00ADEE"/>
</svg>
