<svg width="48" height="48" viewBox="0 0 48 48" fill="none" xmlns="http://www.w3.org/2000/svg">
<rect width="48" height="48" rx="7" fill="#020202"/>
<path d="M37.5003 37.2847C34.7133 39.8537 28.7895 41.959 23.9602 41.959C19.1309 41.959 13.2297 40.0275 10.1719 37.2847L10.1719 35.1021C14.0504 37.6715 18.8075 39.0796 23.712 39.11C28.6846 39.0752 33.5118 37.6698 37.4778 35.1021L37.5003 37.2847Z" fill="#00ADEE"/>
<path fill-rule="evenodd" clip-rule="evenodd" d="M23.5004 17.646C22.7829 18.4024 21.6669 18.7453 20.6163 18.5321C20.5061 19.5428 19.8163 20.4405 18.8339 20.852C19.3729 21.7309 19.3729 22.8405 18.8339 23.7195C19.8163 24.131 20.5061 25.0287 20.6163 26.0394C21.6669 25.8262 22.7829 26.1691 23.5004 26.9255C24.2179 26.1691 25.3339 25.8262 26.3845 26.0394C26.4947 25.0287 27.1845 24.131 28.1669 23.7195C27.6279 22.8405 27.6279 21.7309 28.1669 20.852C27.1845 20.4405 26.4947 19.5428 26.3845 18.5321C25.3339 18.7453 24.2179 18.4024 23.5004 17.646ZM24.486 14.5173C24.2834 13.4838 22.7174 13.4838 22.5148 14.5173L22.2396 15.921C22.0947 16.6603 21.1408 16.9533 20.5641 16.4358L19.4689 15.4531C18.6626 14.7297 17.3957 15.6 17.8742 16.5487L18.5241 17.8373C18.8664 18.5159 18.2769 19.2832 17.4886 19.1851L15.9917 18.9988C14.8897 18.8616 14.4058 20.27 15.3826 20.7715L16.7094 21.4528C17.4081 21.8115 17.4081 22.7599 16.7094 23.1187L15.3826 23.8C14.4058 24.3015 14.8897 25.7098 15.9917 25.5727L17.4886 25.3864C18.2769 25.2883 18.8664 26.0555 18.5241 26.7342L17.8742 28.0228C17.3957 28.9714 18.6626 29.8418 19.4689 29.1184L20.5641 28.1357C21.1408 27.6181 22.0947 27.9112 22.2396 28.6505L22.5148 30.0542C22.7174 31.0876 24.2834 31.0876 24.486 30.0542L24.7612 28.6505C24.9061 27.9112 25.8599 27.6181 26.4367 28.1357L27.5319 29.1184C28.3382 29.8418 29.6051 28.9714 29.1266 28.0228L28.4767 26.7342C28.1344 26.0555 28.7239 25.2883 29.5122 25.3864L31.0091 25.5727C32.1111 25.7098 32.595 24.3015 31.6182 23.8L30.2914 23.1187C29.5927 22.7599 29.5927 21.8115 30.2914 21.4528L31.6182 20.7715C32.595 20.27 32.1111 18.8616 31.0091 18.9988L29.5122 19.1851C28.7239 19.2832 28.1344 18.5159 28.4767 17.8373L29.1266 16.5487C29.6051 15.6 28.3382 14.7296 27.5319 15.4531L26.4367 16.4358C25.8599 16.9533 24.9061 16.6603 24.7612 15.921L24.486 14.5173Z" fill="white"/>
<path fill-rule="evenodd" clip-rule="evenodd" d="M22.9039 10.2486C21.746 12.5029 18.839 13.3961 16.501 12.2158C16.013 11.9695 15.4396 12.3635 15.5365 12.8784C16.001 15.3458 14.2044 17.6841 11.5793 18.0288C11.0314 18.1008 10.8123 18.7383 11.2109 19.101C13.1204 20.8389 13.1204 23.7292 11.2109 25.4672C10.8123 25.8299 11.0314 26.4674 11.5793 26.5393C14.2044 26.884 16.001 29.2223 15.5365 31.6897C15.4396 32.2046 16.013 32.5986 16.501 32.3523C18.839 31.1721 21.746 32.0652 22.9039 34.3196C23.1456 34.7901 23.8544 34.7901 24.0961 34.3196C25.254 32.0652 28.161 31.1721 30.499 32.3523C30.987 32.5986 31.5604 32.2046 31.4635 31.6897C30.999 29.2223 32.7956 26.884 35.4207 26.5393C35.9686 26.4674 36.1876 25.8299 35.7891 25.4672C33.8796 23.7292 33.8796 20.8389 35.7891 19.101C36.1876 18.7383 35.9686 18.1008 35.4207 18.0288C32.7956 17.6841 30.999 15.3458 31.4635 12.8784C31.5604 12.3635 30.987 11.9695 30.499 12.2158C28.161 13.3961 25.254 12.5029 24.0961 10.2486C23.8544 9.77807 23.1456 9.77807 22.9039 10.2486ZM25.8994 9.42035C24.9267 7.52655 22.0733 7.52655 21.1006 9.42035C20.4396 10.7074 18.7799 11.2173 17.4451 10.5435C15.4809 9.55203 13.1725 11.1379 13.5628 13.2107C13.828 14.6194 12.8023 15.9544 11.3035 16.1511C9.09823 16.4407 8.2165 19.0068 9.82064 20.4668C10.9108 21.459 10.9108 23.1091 9.82064 24.1014C8.2165 25.5614 9.09823 28.1274 11.3035 28.417C12.8023 28.6138 13.828 29.9488 13.5628 31.3574C13.1725 33.4302 15.4809 35.0161 17.4451 34.0246C18.7799 33.3508 20.4396 33.8607 21.1006 35.1478C22.0733 37.0416 24.9267 37.0416 25.8994 35.1478C26.5604 33.8607 28.2201 33.3508 29.5549 34.0246C31.5191 35.0161 33.8275 33.4302 33.4372 31.3574C33.172 29.9488 34.1977 28.6138 35.6965 28.417C37.9018 28.1274 38.7835 25.5614 37.1794 24.1014C36.0892 23.1091 36.0892 21.459 37.1794 20.4668C38.7835 19.0068 37.9018 16.4407 35.6965 16.1511C34.1977 15.9544 33.172 14.6194 33.4372 13.2107C33.8275 11.1379 31.5191 9.55203 29.5549 10.5435C28.2201 11.2173 26.5604 10.7074 25.8994 9.42035Z" fill="white"/>
</svg>
